<svg id="Layer_1" data-name="Layer 1" xmlns="http://www.w3.org/2000/svg" width="213" height="254" viewBox="0 0 213 254">
  <defs>
    <style>
      .cls-1 {
        fill: #0f41c2;
      }

      .cls-2 {
        fill: #001e54;
      }

      .cls-3 {
        fill: #0fb995;
      }

      .cls-4 {
        fill: none;
      }

      .cls-5 {
        fill: #007254;
      }

      .cls-6 {
        fill: #00ffbc;
      }

      .cls-7 {
        fill: #6661fc;
      }
    </style>
  </defs>
  <title>icons2</title>
  <g>
    <path class="cls-1" d="M211.6,118.7a3.2,3.2,0,0,1-2.7,2.7c-1.8.2-3.2-1-3.5-3.3s-.5-4.8-.7-7.2a10.3,10.3,0,0,0-9.6-9.6l-25.1-.9-18.5-.6-6.7-.2s1.2,12.3-3.9,22.1l1.2-.2c2.1,0,3.4,1.2,4.1,3.2q8.7,22.8,17.3,45.8l.5,1.5.3.5c-.9.9-1.8,2.1-2.9,2.5a2.7,2.7,0,0,1-3.5-1.8c-1.1-2.7-2.1-5.4-3.1-8.1a2,2,0,0,0-2.2-1.6H131.4a1.9,1.9,0,0,0-2.1,1.5c-.8,2.5-1.8,5-2.8,7.5s-2.4,3.1-4.2,2.4-2.5-2.3-1.6-4.6c5.4-14.4,10.9-28.8,16.4-43.2a21.2,21.2,0,0,1-14.2,6.7c-25,2.4-45.4,3.2-45.4,3.2v1.2a352.6,352.6,0,0,0,1.9,48.2c.7,5.8,4.6,9.8,10.4,10,18.1.7,36.3,1.3,54.4,1.7,4.9.1,8.6,1.8,11.5,5.8,6.1,8.4,13.9,15,22.2,21.2a4.1,4.1,0,0,0,3.4.3,4.3,4.3,0,0,0,1.6-3c.2-4.8.1-9.6.1-14.4,0-6.8,4.2-11.2,11-11.6s10.1-4.2,10.7-10.3a331.3,331.3,0,0,0,1.7-52.7,20.9,20.9,0,0,1-.1-2.5c.1-2.1,1.2-3.5,3.1-3.5a2.9,2.9,0,0,1,2.8,2Z"/>
    <path class="cls-2" d="M140.9,121.7a4.1,4.1,0,0,0-2.8,2.9l-1,2.5a21.2,21.2,0,0,1-14.2,6.7c-25,2.4-45.4,3.2-45.4,3.2s.1-.8.1-1.2.1-2.4.2-3.6.1-.9.1-1.4h1l39.9-1.6a16.4,16.4,0,0,0,15.7-13.8c.6-4,.8-8,1.1-12,.2-1.3.3-2.5.4-3.8h.9l7.9.2S146,111.9,140.9,121.7Z"/>
    <path d="M213,136.5v24.2c-.2,3.1-.4,6.3-.7,9.5-.4,5.4-.9,10.9-1.3,16.3-.8,9-7.2,15.5-16.1,16.1-4.3.4-5.6,1.8-5.6,6.1s-.1,8.8,0,13.3-1.6,7.3-5.3,9.2-7.3,1.1-10.5-1.5c-8.8-6.8-17.1-14.1-23.7-23.2a5.4,5.4,0,0,0-4.5-2.1c-13.6-.3-27.3-.5-40.9-.9A167.6,167.6,0,0,1,87,202.2c-7.4-.9-13-7.3-13.8-14.6a391,391,0,0,1-2-48.4c.1-2.7,0-5.4,0-8.3a63.1,63.1,0,0,0-7.5.1c-1.1.2-2.2,1.3-3.1,2.3s-4.1,5-6.3,7.4a2.3,2.3,0,0,1-.7.7,2.9,2.9,0,0,1-4-.1c-1.4-1.2-1.3-3.1.1-4.8s4.3-5,6.3-7.5a10.9,10.9,0,0,1,8.9-4.5l40.4-.9c4.6-.1,9.2-.5,13.9-.8a10.3,10.3,0,0,0,9.3-9.4,335.9,335.9,0,0,0,1-61l-.9-10.8c-.5-5.9-4.1-9.7-10.1-10.1-8.4-.6-16.9-1-25.3-1.4q-18.9-.6-37.8-.3c-12.2.3-24.3.8-36.4,1.6-6.6.4-10.1,3.5-10.8,10.1C7,51.7,6.4,62,6.2,72.3c0,5.4,0,10.9.3,16.3.4,8.4,1.1,16.8,1.8,25.1a10,10,0,0,0,9.5,9.1c7.7.6,11.3,4.5,11.3,12.3,0,4.1-.1,8.3.1,12.4,0,1.2.7,2.8,1.6,3.2a4.4,4.4,0,0,0,3.5-.6c2.1-1.4,4-3.1,5.9-4.6s3.6-1.4,4.8.1a2.8,2.8,0,0,1-.1,3.9l-.7.8-.5.3-5.9,4.7a8.6,8.6,0,0,1-9.9,1.1,8.7,8.7,0,0,1-5-8.4V134.2c0-3.3-1.6-4.9-4.9-5.1-8.8-.6-15-6.5-16-15.2a335.6,335.6,0,0,1,.1-74.3c.8-7.3,6.7-13.5,14.1-14.1,9.4-.8,18.7-1.3,28.1-1.6,22.2-.9,44.5-.4,66.7.8,2.9.2,5.8.3,8.7.6,8.7,1,14.3,7.1,15.1,15.8a370.1,370.1,0,0,1,1.6,50.5,9.2,9.2,0,0,0,.1,1.5h2L194.8,95a16.7,16.7,0,0,1,16.1,15.6c.2,2.3.5,4.5.7,6.8v.3c0,.3-.1.7-.1,1a3.2,3.2,0,0,1-2.7,2.7c-1.8.2-3.2-1-3.5-3.3s-.5-4.8-.7-7.2a10.3,10.3,0,0,0-9.6-9.6l-25.1-.9-18.5-.6-6.7-.2-7.9-.2H136c-.1,1.3-.2,2.5-.4,3.8-.3,4-.5,8-1.1,12a16.4,16.4,0,0,1-15.7,13.8l-39.9,1.6h-1c0,.5-.1,1-.1,1.4s-.2,2.4-.2,3.6-.1.8-.1,1.2v1.2a352.6,352.6,0,0,0,1.9,48.2c.7,5.8,4.6,9.8,10.4,10,18.1.7,36.3,1.3,54.4,1.7,4.9.1,8.6,1.8,11.5,5.8,6.1,8.4,13.9,15,22.2,21.2a4.1,4.1,0,0,0,3.4.3,4.3,4.3,0,0,0,1.6-3c.2-4.8.1-9.6.1-14.4,0-6.8,4.2-11.2,11-11.6s10.1-4.2,10.7-10.3a331.3,331.3,0,0,0,1.7-52.7,20.9,20.9,0,0,1-.1-2.5c.1-2.1,1.2-3.5,3.1-3.5a2.9,2.9,0,0,1,2.8,2h0a5.7,5.7,0,0,1,.4,1.4C212.7,132.7,212.9,134.6,213,136.5Z"/>
    <path d="M93.9,96.8c-1.5-1.5-3.1-2.8-4.6-4.2,9.4-12.7,6.6-28.4-3.7-37.1a26.8,26.8,0,1,0-24.2,46.4c8.7,2.2,16.6.3,24-5.2L87.3,99l2.2,2.2c1.7,1.6,3.5,1.8,4.8.5S95.6,98.5,93.9,96.8ZM84.8,88c-1.8-1.9-3.4-3.7-5.1-5.4s-3.6-1.9-4.9-.5-1.2,3.2.5,4.9,3.5,3.4,5.2,5.1c-5.7,5.4-17.9,6.7-26.3-1.1A20.6,20.6,0,0,1,81,59.8,20.5,20.5,0,0,1,84.8,88Z"/>
    <path d="M164,172l-.5-1.5q-8.5-23-17.3-45.8c-.7-2-2-3.2-4.1-3.2a4.2,4.2,0,0,0-4,3.1c-5.8,15.3-11.7,30.5-17.4,45.7-.9,2.3-.2,4,1.6,4.6s3.3-.2,4.2-2.4,2-5,2.8-7.5a1.9,1.9,0,0,1,2.1-1.5h21.2a2,2,0,0,1,2.2,1.6c1,2.7,2,5.4,3.1,8.1a2.7,2.7,0,0,0,3.5,1.8c1.1-.4,2-1.6,2.9-2.5Zm-31.6-14.8,9.7-25.7c3.4,8.8,6.5,17.1,9.7,25.7Z"/>
    <path class="cls-1" d="M151.8,157.2H132.4l9.7-25.7C145.5,140.3,148.6,148.6,151.8,157.2Z"/>
    <path d="M208.6,74a9.1,9.1,0,0,0-11.1-6c-3.5,1-7,2.3-10.4,3.6a8.9,8.9,0,0,0-5.4,10.3c1,5.1,4.6,8.1,10.5,8.1,3.1-.7,7.4-1.4,11.5-2.5s4.5-3,5.5-5.6S209.4,76.5,208.6,74Zm-7.2,7.7c-3.4.9-6.9,1.4-9.8,2s-3.4-1.1-3.8-2.8.2-3,1.7-3.5q4.8-1.8,9.6-3.3c2-.6,3.2.4,3.8,2.8S203.3,81.2,201.4,81.7Z"/>
    <path class="cls-3" d="M201.4,81.7c-3.4.9-6.9,1.4-9.8,2s-3.4-1.1-3.8-2.8.2-3,1.7-3.5q4.8-1.8,9.6-3.3c2-.6,3.2.4,3.8,2.8S203.3,81.2,201.4,81.7Z"/>
    <path d="M163.7,30.6c-.6-4.7-3.5-7.3-9.3-8.6s-9.2,1.4-10.5,5.8-1.8,8.3-2.5,11.4c-.1,5.5,2.7,9.1,7,10.3s9-.2,10.7-4a119,119,0,0,0,4.5-13.1A5.3,5.3,0,0,0,163.7,30.6Zm-6.4,1.7c-.9,3.2-2,6.4-3.2,9.6a2.9,2.9,0,0,1-3.8,1.6c-1.9-.5-2.7-1.5-2.6-3.8s1.1-6.2,2-9.5,2-2.5,4.7-1.8S157.9,30.3,157.3,32.3Z"/>
    <path class="cls-3" d="M157.3,32.3c-.9,3.2-2,6.4-3.2,9.6a2.9,2.9,0,0,1-3.8,1.6c-1.9-.5-2.7-1.5-2.6-3.8s1.1-6.2,2-9.5,2-2.5,4.7-1.8S157.9,30.3,157.3,32.3Z"/>
    <path d="M186.5,42.8a9.1,9.1,0,0,0-12.9.5c-2.3,2.5-4.6,5.1-6.8,7.8a9.2,9.2,0,0,0,.9,12.6c3.7,3.6,8.7,4.1,12.6.9s5.3-4.5,7.8-6.8,2.9-4,2.9-7.2S189,45.1,186.5,42.8ZM184,53c-2.5,2.4-5.2,4.7-7.9,6.9a4.8,4.8,0,0,1-2,.8c-.9-.8-2.2-1.5-2.7-2.6a3.7,3.7,0,0,1,.4-3.2,85.4,85.4,0,0,1,6.3-7.2c1.3-1.5,2.9-1.4,4.5,0S185.5,51.5,184,53Z"/>
    <path class="cls-3" d="M184,53c-2.5,2.4-5.2,4.7-7.9,6.9a4.8,4.8,0,0,1-2,.8c-.9-.8-2.2-1.5-2.7-2.6a3.7,3.7,0,0,1,.4-3.2,85.4,85.4,0,0,1,6.3-7.2c1.3-1.5,2.9-1.4,4.5,0S185.5,51.5,184,53Z"/>
    <path class="cls-3" d="M129.5,52.4l-.9-10.8c-.5-5.9-4.1-9.7-10.1-10.1-8.4-.6-16.9-1-25.3-1.4q-18.9-.6-37.8-.3S14.2,35.3,6.2,72.3c0,5.4,0,10.9.3,16.3.4,8.4,1.1,16.8,1.8,25.1a10,10,0,0,0,9.5,9.1c7.7.6,11.3,4.5,11.3,12.3,0,4.1-.1,8.3.1,12.4,0,1.2.7,2.8,1.6,3.2a4.4,4.4,0,0,0,3.5-.6c2.1-1.4,4-3.1,5.9-4.6s3.6-1.4,4.8.1a2.8,2.8,0,0,1-.1,3.9l8.7-8.1a2.9,2.9,0,0,1-4-.1c-1.4-1.2-1.3-3.1.1-4.8s4.3-5,6.3-7.5a10.9,10.9,0,0,1,8.9-4.5l40.4-.9c4.6-.1,9.2-.5,13.9-.8a10.3,10.3,0,0,0,9.3-9.4A335.9,335.9,0,0,0,129.5,52.4ZM94.3,101.7c-1.3,1.3-3.1,1.1-4.8-.5L87.3,99l-1.9-2.3c-7.4,5.5-15.3,7.4-24,5.2A26.5,26.5,0,0,1,46,90.9,26.8,26.8,0,0,1,85.6,55.5c10.3,8.7,13.1,24.4,3.7,37.1,1.5,1.4,3.1,2.7,4.6,4.2S95.7,100.3,94.3,101.7Z"/>
    <path class="cls-3" d="M74.8,82.1c-1.4,1.4-1.2,3.2.5,4.9s3.5,3.4,5.2,5.1c-5.7,5.4-17.9,6.7-26.3-1.1A20.6,20.6,0,0,1,81,59.8,20.5,20.5,0,0,1,84.8,88c-1.8-1.9-3.4-3.7-5.1-5.4S76.1,80.7,74.8,82.1Z"/>
    <line class="cls-4" x1="44.9" y1="149.5" x2="43.7" y2="150.6"/>
    <line class="cls-4" x1="54.3" y1="140.7" x2="53.6" y2="141.4"/>
    <path class="cls-5" d="M55.4,29.8S14.2,35.3,6.2,72.3c.2-10.3.8-20.6,2-30.8.7-6.6,4.2-9.7,10.8-10.1C31.1,30.6,43.2,30.1,55.4,29.8Z"/>
    <path class="cls-6" d="M115.9,99.2h-.5a1.6,1.6,0,0,1-1.1-2.1c3.8-13.5,1-26.7,1-26.9a1.7,1.7,0,0,1,1.3-2,1.8,1.8,0,0,1,2,1.3A66.8,66.8,0,0,1,117.5,98,1.6,1.6,0,0,1,115.9,99.2Z"/>
    <circle class="cls-6" cx="112.9" cy="103.2" r="2.2"/>
    <path class="cls-7" d="M181.5,185.8a1.8,1.8,0,0,1-1.6-1.2,1.7,1.7,0,0,1,1-2.1c17-5.8,13.1-26.6,13-26.8a1.8,1.8,0,0,1,1.3-2,1.7,1.7,0,0,1,2,1.3c0,.3,4.5,23.9-15.2,30.7Z"/>
  </g>
</svg>
