<svg id="Layer_1" data-name="Layer 1" xmlns="http://www.w3.org/2000/svg" width="213" height="254" viewBox="0 0 213 254">
  <defs>
    <style>
      .cls-1 {
        fill: #0f41c2;
      }

      .cls-2 {
        fill: #0fb995;
      }

      .cls-3 {
        fill: #001e54;
      }

      .cls-4 {
        fill: #6661fc;
      }
    </style>
  </defs>
  <title>icons2</title>
  <g>
    <path d="M147,84.5a23.6,23.6,0,0,0-.7-6.5c-2.5-10-11.1-16.4-21.9-16.4H67.6a5.5,5.5,0,0,0-5.5,5.5,5.3,5.3,0,0,0,1.6,3.8,5.5,5.5,0,0,0,3.9,1.6h56.5c7.7,0,12.1,4.4,12.1,12v85c0,7.6-4.5,12-12.1,12H23.1c-7.9,0-12.2-4.4-12.2-12.3V84.8c0-7.9,4.3-12.3,12.2-12.3H42a5.4,5.4,0,0,0,5.4-5.4h0A5.4,5.4,0,0,0,42,61.6H36.3c-5,0-10-.1-15,.1A21.6,21.6,0,0,0,1.1,76.6C.7,77.9.4,79.1,0,80.3v93.4c.1.2.3.3.3.5C3,185.8,11.1,192.4,23,192.4H124.2c13.6,0,22.9-9.3,22.9-22.9C147.1,141.2,147.1,112.8,147,84.5Z"/>
    <path d="M213,84.7c0-9.5-8.4-14.6-16.8-10.1L159.7,94.1a11.3,11.3,0,0,0-6.6,10.8V149c0,5.1,2.2,8.6,6.7,11l36.1,19.3c8.8,4.6,17.1-.3,17.1-10.3v-2.8a5,5,0,0,0-.8-2.7,5.4,5.4,0,0,0-4.7-2.7,5.5,5.5,0,0,0-3.9,1.6,5.7,5.7,0,0,0-1.6,3.8v3.7l-1.4-.5-35-18.6a2.7,2.7,0,0,1-1.6-2.9V106.1a2.6,2.6,0,0,1,1.5-2.8l35.3-18.8,1.2-.6v59.7a5.5,5.5,0,0,0,5.5,5.4h0a5.4,5.4,0,0,0,4.7-2.7,5,5,0,0,0,.8-2.7V84.7Z"/>
    <path class="cls-1" d="M136.2,84.5v85c0,7.6-4.5,12-12.1,12H89.8c-68.9,0-71.2-14-71.2-24.1V97.5c0-24.3,23.4-25,23.4-25a5.4,5.4,0,0,0,5.4-5.4h0A5.4,5.4,0,0,0,42,61.6H67.6a5.5,5.5,0,0,0-5.5,5.5,5.3,5.3,0,0,0,1.6,3.8,5.5,5.5,0,0,0,3.9,1.6h56.5C131.8,72.5,136.2,76.9,136.2,84.5Z"/>
    <path class="cls-2" d="M212.2,146.3v17.2a5.4,5.4,0,0,0-4.7-2.7,5.5,5.5,0,0,0-3.9,1.6,5.7,5.7,0,0,0-1.6,3.8v3.7l-1.4-.5-35-18.6a2.7,2.7,0,0,1-1.6-2.9V106.1a2.6,2.6,0,0,1,1.5-2.8l35.3-18.8,1.2-.6v59.7a5.5,5.5,0,0,0,5.5,5.4h0A5.4,5.4,0,0,0,212.2,146.3Z"/>
    <path class="cls-3" d="M89.8,181.5H23.1c-7.9,0-12.2-4.4-12.2-12.3V84.8c0-7.9,4.3-12.3,12.2-12.3H42s-23.4.7-23.4,25v59.9C18.6,167.5,20.9,181.5,89.8,181.5Z"/>
    <rect class="cls-4" x="112.4" y="82.9" width="8.3" height="23.24"/>
  </g>
</svg>
