<svg id="Layer_1" data-name="Layer 1" xmlns="http://www.w3.org/2000/svg" width="213" height="254" viewBox="0 0 213 254">
  <defs>
    <style>
      .cls-1 {
        fill: #0f41c2;
      }

      .cls-2 {
        fill: #007254;
      }

      .cls-3 {
        fill: #00ffbc;
      }

      .cls-4 {
        fill: #0fb995;
      }

      .cls-5 {
        fill: #6661fc;
      }
    </style>
  </defs>
  <title>icons2</title>
  <g>
    <path d="M125.6,126.6h-.1l-2.5-.7c-5.4-1.2-11-1-16.5-1.4h-.2l-3.5.4h0c-10.5,1.7-39.5,10.6-34.6,54.7,6.5,6.8,12.9,13.6,19.4,20.3l7.2,7.3a16.1,16.1,0,0,0,23.4,0c8-8.1,15.8-16.4,23.7-24.6C147.8,141,126.7,127.3,125.6,126.6Zm86.7-41.7c-4-21.7-16.1-37.3-36.8-45.2s-40-4.5-57.5,9.1a105.7,105.7,0,0,0-7.7,7.3,5.2,5.2,0,0,1-7.6,0l-2.2-2.2A58.5,58.5,0,0,0,65.7,36.2a4.7,4.7,0,0,0-2.4.3,3,3,0,0,0-1.7,2.3c-.2,1.7.9,3.1,3,3.5s5.7,1.1,8.5,1.9C82.9,47,90.9,52.6,97.8,60c5,5.5,12.1,5.4,17.3.2a39.5,39.5,0,0,1,3.5-3.6c13.5-12.6,29.5-17.3,47.5-13.3,27.6,6.2,44.6,32.2,39.8,60.1a50.8,50.8,0,0,1-6.5,17.2,28.2,28.2,0,0,0-17.2-14.9c8-11.3,7.8-21.6-.6-29.1a19.7,19.7,0,0,0-26.1-.1c-8.5,7.6-8.7,17.8-.6,29.2-9.5,3.1-15.7,9.4-18.7,18.6L123.4,119l2.2-2a26.5,26.5,0,0,0,6.8-11.2,2.6,2.6,0,0,0,.1-1.5,2.7,2.7,0,0,0-2-2.3,2.8,2.8,0,0,0-3.8,1.6l-.6,1.3a20.6,20.6,0,0,1-21.8,13.5c-11.9-1-20.4-12.2-18.6-24.3S99.2,74.5,110.6,77c7.7,1.7,12.9,6.3,15.7,13.7.9,2.3,2.5,3.2,4.3,2.5a3.2,3.2,0,0,0,1.8-1.8,4.9,4.9,0,0,0-.2-2.9c-4.3-12.3-17.3-20.2-30-17.8-11.1,2-18.6,8.5-21.8,19.2s-.2,20.3,8,28a7.8,7.8,0,0,0,1.5,1l-13.2,5.4a27.3,27.3,0,0,0-6.9-11.5A27,27,0,0,0,58,105.7c8.2-11,8-21.2-.3-28.9a19.6,19.6,0,0,0-26.2-.3c-8.5,7.4-8.8,17.7-.7,29.2a28.1,28.1,0,0,0-17.2,14.8l-1.1-1.7A52.2,52.2,0,0,1,49.8,42.6c2.7-.4,4.1-2.3,3.2-4.4a3.2,3.2,0,0,0-2-1.8,6.5,6.5,0,0,0-2.4.1C25,41.3,9.5,55.2,2.3,78.1,1.1,81.7.7,85.5,0,89.2v9.6c.1.5.3.9.4,1.4a56.8,56.8,0,0,0,15.9,34.2q36.6,38.4,73.4,76.7c9.5,9.8,24.1,9.8,33.5,0l73.5-76.7a55.8,55.8,0,0,0,14-24.5c1-3.6,1.6-7.4,2.3-11.1V89.2C212.7,87.8,212.5,86.4,212.3,84.9Zm-43.8-7a13.4,13.4,0,1,1-13.4,13.2A13.4,13.4,0,0,1,168.5,77.9Zm-124,0a13.4,13.4,0,1,1-.2,26.7,13.4,13.4,0,1,1,.2-26.7ZM19.1,128.3a2.6,2.6,0,0,1-.6-3.2c3.2-8.3,9.1-13.2,17.9-14,2.6-.2,5.3-.3,7.9-.3-1.9.2-22.4,2.8-24.1,18.6A11.4,11.4,0,0,0,19.1,128.3Zm39.6-15.7,1,.4.9.4.3.2,1,.6,1,.7,1,.8,1,.9a3.8,3.8,0,0,1,.9.9l.8.9h0l.8,1,.2.3a2.2,2.2,0,0,1,.5.8l.8,1.2a5.9,5.9,0,0,1,.4.8c.4.9.8,1.8,1.1,2.7a2.4,2.4,0,0,1,.2.8,1.9,1.9,0,0,1,.2.7c.1.3.1.5.2.8a3.9,3.9,0,0,1-.8,2.7,38.4,38.4,0,0,0-8.8,14.1c0-6.9,4.8-12,6.3-16.6S60.3,114.2,58.7,112.6Zm7.7,65.1a3.2,3.2,0,0,1-.8-2c-.1-7.1-.3-14.2.1-21.2.9-15.9,14.3-28.8,30.1-29.6,2.4-.1,4.7,0,7,0-10.5,1.7-39.5,10.6-34.6,54.7Zm81-2.1a3.4,3.4,0,0,1-1,2.2l-4.5,4.8c5.9-41.6-15.2-55.3-16.3-56a31.5,31.5,0,0,1,21.7,28.8C147.5,162.2,147.4,168.9,147.4,175.6Zm46.4-47.3a38.3,38.3,0,0,1-2.8,2.9l-20.6,21.6c-5,5.2-10,10.4-14.9,15.7a4.8,4.8,0,0,0-1,1.7l-.9-.5c0-3.8.2-7.6,0-11.4a68.6,68.6,0,0,0-1.3-11.1,33.6,33.6,0,0,0-9.4-16.8,3.3,3.3,0,0,1-.9-3.5c2.3-8.7,9.3-15.1,18.5-15.8l7.8-.3h5.4l2,.2,2.4.3,1.5.2,1.4.4h.2l1.2.4,1.1.4,1.2.6h0l.8.5h.1l.8.5a8.3,8.3,0,0,1,1.6,1.2l.5.4,1.9,1.9.7.9v.2c.6.8,1,1.5,1.5,2.3l.6,1.2c.1.1.1.1.1.2l.6,1.2.6,1.5A2.6,2.6,0,0,1,193.8,128.3ZM54,111.3c-3.2-.3-6.4-.5-9.6-.5h-.1c-1.9.2-22.4,2.8-24.1,18.6,2.3,2.4,4.5,4.8,6.8,7.1,10.5,11.1,21.1,22.1,32.2,33.6,0-1.1.1-1.8.1-2.5V157.2a39.6,39.6,0,0,1,2.1-12.9c0-6.9,4.8-12,6.3-16.6s-7.4-13.5-9-15.1A15.7,15.7,0,0,0,54,111.3Z"/>
    <path class="cls-1" d="M181.9,91.4a13.4,13.4,0,1,1-13.4-13.5A13.4,13.4,0,0,1,181.9,91.4Z"/>
    <path class="cls-2" d="M155.5,168.5a4.8,4.8,0,0,0-1,1.7l-.9-.5c0-3.8.2-7.6,0-11.4a68.6,68.6,0,0,0-1.3-11.1,33.6,33.6,0,0,0-9.4-16.8,3.3,3.3,0,0,1-.9-3.5c2.3-8.7,9.3-15.1,18.5-15.8l7.8-.3c-.7,0-19.6,2-22.2,16.2C145.5,133.8,159.3,134.8,155.5,168.5Z"/>
    <path class="cls-3" d="M193.8,128.3a38.3,38.3,0,0,1-2.8,2.9c1.3-6.2-5.9-17.1-6.3-17.8l.8.5h.1l.8.5a8.3,8.3,0,0,1,1.6,1.2l.5.4,1.9,1.9.7.9v.2l1.5,2.3.6,1.2c.1.1.1.1.1.2l.6,1.2.6,1.5A2.6,2.6,0,0,1,193.8,128.3Z"/>
    <path class="cls-2" d="M71.5,183.1l-5.1-5.4a3.2,3.2,0,0,1-.8-2c-.1-7.1-.3-14.2.1-21.2.9-15.9,14.3-28.8,30.1-29.6,2.4-.1,4.7,0,7,0C92.3,126.6,66.6,138.9,71.5,183.1Z"/>
    <path class="cls-3" d="M147.4,175.6a3.4,3.4,0,0,1-1,2.2l-4.5,4.8c5.9-41.6-15.2-55.3-16.3-56a31.5,31.5,0,0,1,21.7,28.8C147.5,162.2,147.4,168.9,147.4,175.6Z"/>
    <path class="cls-4" d="M141.9,182.6c-7.9,8.2-15.7,16.5-23.7,24.6a16.1,16.1,0,0,1-23.4,0l-7.2-7.3L71.5,183.1c-4.9-44.2,20.8-56.5,31.3-58.2h0l3.5-.4h.2c5.5.4,11.1.2,16.5,1.4l2.5.7h.1C126.7,127.3,147.8,141,141.9,182.6Z"/>
    <path class="cls-3" d="M70.2,130.2a38.4,38.4,0,0,0-8.8,14.1c0-6.9,4.8-12,6.3-16.6s-7.4-13.5-9-15.1l1,.4.9.4.3.2,1,.6,1,.7,1,.8,1,.9a3.8,3.8,0,0,1,.9.9l.8.9h0l.8,1,.2.3a2.2,2.2,0,0,1,.5.8l.8,1.2a5.9,5.9,0,0,1,.4.8c.4.9.8,1.8,1.1,2.7a2.4,2.4,0,0,1,.2.8,1.9,1.9,0,0,1,.2.7c.1.3.1.5.2.8A3.9,3.9,0,0,1,70.2,130.2Z"/>
    <path class="cls-4" d="M58.7,112.6c1.6,1.6,10.3,10.9,9,15.1s-6.3,9.7-6.3,16.6a39.6,39.6,0,0,0-2.1,12.9v10.4c0,.7-.1,1.4-.1,2.5C48.1,158.6,37.5,147.6,27,136.5c-2.3-2.3-4.5-4.7-6.8-7.1,1.7-15.8,22.2-18.4,24.1-18.6h.1c3.2,0,6.4.2,9.6.5A15.7,15.7,0,0,1,58.7,112.6Z"/>
    <path class="cls-1" d="M57.8,91.4a13.3,13.3,0,0,1-13.5,13.2,13.4,13.4,0,1,1,.2-26.7A13.2,13.2,0,0,1,57.8,91.4Z"/>
    <path class="cls-1" d="M132.5,104.3a2.7,2.7,0,0,0-2-2.3,2.8,2.8,0,0,0-3.8,1.6l-.6,1.3a20.6,20.6,0,0,1-21.8,13.5c-11.9-1-20.4-12.2-18.6-24.3S99.2,74.5,110.6,77c7.7,1.7,12.9,6.3,15.7,13.7.9,2.3,2.5,3.2,4.3,2.5a3.2,3.2,0,0,0,1.8-1.8A25.5,25.5,0,0,1,132.5,104.3Z"/>
    <path class="cls-1" d="M205.9,103.4a50.8,50.8,0,0,1-6.5,17.2,28.2,28.2,0,0,0-17.2-14.9c8-11.3,7.8-21.6-.6-29.1a19.7,19.7,0,0,0-26.1-.1c-8.5,7.6-8.7,17.8-.6,29.2-9.5,3.1-15.7,9.4-18.7,18.6L123.4,119l2.2-2a26.5,26.5,0,0,0,6.8-11.2,2.6,2.6,0,0,0,.1-1.5,25.5,25.5,0,0,0-.1-12.9,4.9,4.9,0,0,0-.2-2.9c-4.3-12.3-17.3-20.2-30-17.8-11.1,2-18.6,8.5-21.8,19.2s-.2,20.3,8,28a7.8,7.8,0,0,0,1.5,1l-13.2,5.4a27.3,27.3,0,0,0-6.9-11.5A27,27,0,0,0,58,105.7c8.2-11,8-21.2-.3-28.9a19.6,19.6,0,0,0-26.2-.3c-8.5,7.4-8.8,17.7-.7,29.2a28.1,28.1,0,0,0-17.2,14.8l-1.1-1.7A52.2,52.2,0,0,1,49.8,42.6c2.7-.4,4.1-2.3,3.2-4.4a3.2,3.2,0,0,0-2-1.8,55.8,55.8,0,0,1,12.3.1,3,3,0,0,0-1.7,2.3c-.2,1.7.9,3.1,3,3.5s5.7,1.1,8.5,1.9C82.9,47,90.9,52.6,97.8,60c5,5.5,12.1,5.4,17.3.2a39.5,39.5,0,0,1,3.5-3.6c13.5-12.6,29.5-17.3,47.5-13.3C193.7,49.5,210.7,75.5,205.9,103.4Z"/>
    <path class="cls-4" d="M191,131.2l-20.6,21.6c-5,5.2-10,10.4-14.9,15.7,3.8-33.7-10-34.7-9.4-41.5,2.6-14.2,21.5-16.2,22.2-16.2h5.4l2,.2,2.4.3,1.5.2,1.4.4h.2l1.2.4,1.1.4,1.2.6h0l.8.5-.8-.5C185.1,114.1,192.3,125,191,131.2Z"/>
    <path class="cls-2" d="M44.3,110.8c-1.9.2-20.5,4.8-22.2,20.6-.4-.4-2.6-2.8-3-3.1a2.6,2.6,0,0,1-.6-3.2c3.2-8.3,9.1-13.2,17.9-14C39,110.9,41.7,110.8,44.3,110.8Z"/>
    <path class="cls-5" d="M184.3,66.7a2.8,2.8,0,0,1-2.1-1C170.5,50.9,148.3,53.9,148.1,54a2.7,2.7,0,0,1-.8-5.3c1.1-.2,25.4-3.5,39,13.7a2.5,2.5,0,0,1-.4,3.7A2.7,2.7,0,0,1,184.3,66.7Z"/>
  </g>
</svg>
