<svg id="Layer_1" data-name="Layer 1" xmlns="http://www.w3.org/2000/svg" width="213" height="254" viewBox="0 0 213 254">
  <defs>
    <style>
      .cls-1 {
        fill: #0f41c2;
      }

      .cls-2 {
        fill: #007254;
      }

      .cls-3 {
        fill: #0fb995;
      }

      .cls-4 {
        fill: #00ffbc;
      }
    </style>
  </defs>
  <title>icons2</title>
  <g>
    <path d="M203.6,80c-29-11.4-58.4-21.2-88.3-29.9a29.7,29.7,0,0,0-17.7.1L54,63.8l-9,3h0l-5.4,1.9-.5.3H39a2.9,2.9,0,0,0-1.7,3.9c.7,1.8,2.3,2.4,4.5,1.7l.6-.2,16.4-5.3h.3l41.4-13.2a20.3,20.3,0,0,1,11.7-.1c9.1,2.6,18.1,5.4,27.2,8.2h0q31.7,10,62.6,22.3c3.2,1.3,4.8,3.2,4.8,6.1s-1.5,4.8-4.8,6L162.5,113a7,7,0,0,1-6-.3c-10.9-5.4-21.9-10.5-33-15.8L108,89.5c-1.5-.7-3.1-.5-3.8.9a5,5,0,0,0-.1,3.6c.2.7,1.3,1.2,2.1,1.5l32.6,15.6,11.8,5.6c-.4.3-.6.5-.8.5L111.3,129a18.1,18.1,0,0,1-10.3-.2c-19.7-5.7-39.2-11.8-58.5-18.6h0c-10.6-3.8-21.1-7.7-31.5-11.9C7.8,97,6.2,95.1,6.2,92.2s1.6-4.8,4.8-6l17.7-6.8c2.4-1,3.4-2.5,2.7-4.4s-2.2-2.3-4.2-1.7l-.7.2-.8.3c-5,1.9-10,4-15.1,5.8S1.5,84.4,0,89.9v4.6c1.4,5.5,5.1,8.6,10.3,10.3s8.2,3.2,12.3,4.7c6.8,2.6,13.7,5.1,20.7,7.6v33.1c0,5.5,1.9,8.3,6.9,10.4A444.5,444.5,0,0,0,103.7,179a12,12,0,0,0,6.5,0c13.6-4.3,27.1-8.8,40.7-13.3l2.6-.9c0,3,.1,5.7-.1,8.4a2.3,2.3,0,0,1-1.2,1.7c-4.7,2.2-7.2,5.8-7.2,11s-.1,10.4-.1,15.6c.1,2.7,1.1,3.7,3.9,3.7h15.6c2.7,0,3.7-1,3.8-3.7V186.1c0-5.3-2.5-8.9-7.2-11.2a2.3,2.3,0,0,1-1.2-1.8c-.2-1.9.2-3.9-.1-5.8-.6-3.8.6-6,4.5-7a7.6,7.6,0,0,0,5.8-6,31.6,31.6,0,0,0,.5-6.9h0a4.9,4.9,0,0,1-.1-1.2,2.6,2.6,0,0,0-3.2-2.5,2.7,2.7,0,0,0-2.8,2.7,24.1,24.1,0,0,0-.1,3.8c0,3.4-.8,4.3-4.6,5.1V124.5c0-4.1,0-4.1,3.9-5.3.2-.1.4,0,.7,0,0,4.8-.1,9.6.1,14.4a4.4,4.4,0,0,0,1.5,3.1c2,1.5,4.6-.2,4.6-2.9,0-1.1,0-2.1.1-3.2v-.8c0-3.7,0-7.3-.1-11,0-1.6.5-2.2,2-2.8,10-3.6,19.9-7.5,30-11.1,5.2-1.8,9-4.8,10.5-10.4V89.9C211.6,85,208.4,81.9,203.6,80Zm-51.8,78.7-42.7,14.2a8.1,8.1,0,0,1-4.1.1,487.4,487.4,0,0,1-48.6-16.5h0l-3.7-1.5a4.4,4.4,0,0,1-3.2-4.7c.1-10.2,0-20.3,0-31,3.3,1.1,6.2,2.2,9.2,3.1l40.2,12.4a22.2,22.2,0,0,0,7.6,1.1,27.7,27.7,0,0,0,8-1.2l36.7-11.3,2.1-.6a13.7,13.7,0,0,1,.2,1.9c0,10.5-.1,21.1,0,31.6A2.2,2.2,0,0,1,151.8,158.7Zm10,26.5c.2,4.5.1,9,.1,13.7H151.3c0-4.8-.1-9.5.1-14.2.1-2.7,2.8-4.5,5.4-4.4A5.1,5.1,0,0,1,161.8,185.2Z"/>
    <path class="cls-1" d="M161.9,198.9H151.3c0-4.8-.1-9.5.1-14.2.1-2.7,2.8-4.5,5.4-4.4a5.1,5.1,0,0,1,5,4.9C162,189.7,161.9,194.2,161.9,198.9Z"/>
    <path class="cls-2" d="M106.5,135.8s-5.8,4.7-44.3-6.1c-7.3-2.1-5.8,26.2-5.8,26.7l-3.7-1.5a4.4,4.4,0,0,1-3.2-4.7c.1-10.2,0-20.3,0-31,3.3,1.1,6.2,2.2,9.2,3.1l40.2,12.4A22.2,22.2,0,0,0,106.5,135.8Z"/>
    <path class="cls-3" d="M153.5,156.2a2.2,2.2,0,0,1-1.7,2.5l-42.7,14.2a8.1,8.1,0,0,1-4.1.1,487.4,487.4,0,0,1-48.6-16.5h0c0-.5-1.5-28.8,5.8-26.7,38.5,10.8,44.3,6.1,44.3,6.1a27.7,27.7,0,0,0,8-1.2l36.7-11.3,2.1-.6a13.7,13.7,0,0,1,.2,1.9C153.5,135.1,153.4,145.7,153.5,156.2Z"/>
    <path class="cls-2" d="M42.5,110.2c-10.6-3.8-21.1-7.7-31.5-11.9C7.8,97,6.2,95.1,6.2,92.2s1.6-4.8,4.8-6l17.7-6.8c2.4-1,3.4-2.5,2.7-4.4s-2.2-2.3-4.2-1.7L39,69a2.9,2.9,0,0,0-1.7,3.9c.7,1.8,2.3,2.4,4.5,1.7l.6-.2,16.4-5.3C46.3,73.5-2.7,92.4,42.5,110.2Z"/>
    <path class="cls-3" d="M162.5,113a7,7,0,0,1-6-.3c-10.9-5.4-21.9-10.5-33-15.8L108,89.5c-1.5-.7-3.1-.5-3.8.9a5,5,0,0,0-.1,3.6c.2.7,1.3,1.2,2.1,1.5l32.6,15.6,11.8,5.6c-.4.3-.6.5-.8.5L111.3,129a18.1,18.1,0,0,1-10.3-.2c-19.7-5.7-39.2-11.8-58.5-18.6h0C-2.7,92.4,46.3,73.5,58.8,69.1h.3l41.4-13.2a20.3,20.3,0,0,1,11.7-.1c9.1,2.6,18.1,5.4,27.2,8.2h0C141,64.6,208.1,93.8,162.5,113Z"/>
    <path class="cls-3" d="M170.6,130.6v16.7a4.9,4.9,0,0,1-.1-1.2,2.6,2.6,0,0,0-3.2-2.5,2.7,2.7,0,0,0-2.8,2.7,24.1,24.1,0,0,0-.1,3.8c0,3.4-.8,4.3-4.6,5.1V124.5c0-4.1,0-4.1,3.9-5.3.2-.1.4,0,.7,0,0,4.8-.1,9.6.1,14.4a4.4,4.4,0,0,0,1.5,3.1c2,1.5,4.6-.2,4.6-2.9C170.5,132.7,170.5,131.7,170.6,130.6Z"/>
    <path class="cls-4" d="M206.8,92.3c-.1,2.8-1.5,4.8-4.8,6L162.5,113c45.6-19.2-21.5-48.4-23.1-49.1q31.7,10,62.6,22.3C205.2,87.5,206.8,89.4,206.8,92.3Z"/>
    <polygon class="cls-1" points="139.3 64.2 139.3 64.2 139.5 63.7 139.3 64.2"/>
    <polygon class="cls-4" points="56.2 156.5 56.2 156.4 56.7 156.4 56.2 156.5"/>
    <polygon class="cls-2" points="42.5 110.4 42.5 110.4 42.5 109.9 42.5 110.4"/>
  </g>
</svg>
